<svg xmlns="http://www.w3.org/2000/svg" viewBox="0 0 36.51 44.11"><defs><style>.cls-1{fill:#0d0d0d;}.cls-2{fill:#1a1a1a;}.cls-3,.cls-5,.cls-6{fill:#f29f05;}.cls-4{fill:#1d3d59;}.cls-5,.cls-6,.cls-7{stroke:#f29f05;}.cls-5,.cls-7{stroke-miterlimit:10;}.cls-5,.cls-6{stroke-width:0.13px;}.cls-6{stroke-linejoin:round;}.cls-7{fill:none;stroke-width:0.33px;}</style></defs><title>FIlm Festival</title><g id="Layer_2" data-name="Layer 2"><g id="Layer_1-2" data-name="Layer 1"><rect class="cls-1" width="36.51" height="44.11"/><rect class="cls-2" x="6.78" y="13.96" height="10.55"/><rect class="cls-2" x="6.78" y="26.11" height="7.48"/><rect class="cls-3" x="13.3" y="15.18" width="1.55" height="1.92"/><rect class="cls-4" x="13.3" y="18.94" width="1.55" height="12.64"/><polygon class="cls-4" points="5.21 8.83 5.21 10.37 29.73 10.37 29.75 10.37 29.75 10.4 29.75 33.58 29.75 33.61 29.73 33.61 6.78 33.61 6.76 33.61 6.76 33.58 6.76 26.11 6.76 26.08 6.78 26.08 11.57 26.08 11.57 24.54 6.78 24.54 6.76 24.54 6.76 24.51 6.76 13.96 6.76 13.94 6.78 13.94 14.84 13.94 14.84 12.39 5.21 12.39 5.21 33.58 5.21 35.15 6.78 35.15 29.73 35.15 31.3 35.15 31.3 8.83 29.73 8.83 5.21 8.83"/><polygon class="cls-4" points="26.19 13.94 26.19 13.96 26.19 31.59 27.74 31.59 27.74 12.39 19.79 12.39 19.79 28.37 21.33 28.37 21.33 13.96 21.33 13.94 21.36 13.94 22.95 13.94 22.97 13.94 22.97 13.96 22.97 28.37 24.55 28.37 24.55 13.96 24.55 13.94 24.57 13.94 26.17 13.94 26.19 13.94"/><polygon class="cls-4" points="18.11 30.05 18.11 30.02 18.11 12.39 16.57 12.39 16.57 31.59 24.55 31.59 24.55 30.05 18.14 30.05 18.11 30.05"/><path class="cls-5" d="M5.19,4.67h.54V4.8H5.32v1h.33v.12H5.32V7.09H5.19Z"/><path class="cls-5" d="M7,4.67H7.2A.34.34,0,0,1,7.54,5V5.6a.32.32,0,0,1-.16.29l.15,1.2H7.41L7.26,5.94H7.08V7.09H7ZM7.2,5.82a.22.22,0,0,0,.22-.22V5A.21.21,0,0,0,7.2,4.8H7.08v1Z"/><path class="cls-5" d="M8.77,4.67h.54V4.8H8.89v1h.34v.12H8.89V7h.42v.13H8.77Z"/><path class="cls-5" d="M10.48,6.83V6.39h.13v.44a.16.16,0,1,0,.32,0V6.58a1.65,1.65,0,0,0-.15-.69l-.19-.45a1.31,1.31,0,0,1-.11-.52.3.3,0,0,1,.29-.3.29.29,0,0,1,.28.3v.37h-.12V4.92a.16.16,0,1,0-.32,0,1.1,1.1,0,0,0,.1.47l.19.45a1.85,1.85,0,0,1,.15.74v.25a.28.28,0,0,1-.28.29A.29.29,0,0,1,10.48,6.83Z"/><path class="cls-5" d="M12.28,4.67h.13l.42,1.84V4.67H13V7.09h-.13l-.41-1.85V7.09h-.13Z"/><path class="cls-5" d="M14.2,6.82V4.92a.29.29,0,1,1,.58,0v1.9a.29.29,0,1,1-.58,0Zm.45,0V4.92a.16.16,0,1,0-.32,0v1.9a.16.16,0,1,0,.32,0Z"/><path class="cls-6" d="M18.56,36.9h.55V37h-.42v1H19v.13h-.34v1.15h-.13Z"/><path class="cls-6" d="M20.33,36.9h.55V37h-.42v1h.34v.13h-.34v1h.42v.13h-.55Z"/><path class="cls-6" d="M22.05,39.06v-.43h.13v.43a.15.15,0,0,0,.15.17.16.16,0,0,0,.16-.17v-.24a1.66,1.66,0,0,0-.15-.7l-.18-.44a1.2,1.2,0,0,1-.11-.53.29.29,0,1,1,.57,0v.37h-.13v-.37a.16.16,0,0,0-.16-.16.15.15,0,0,0-.15.16,1.28,1.28,0,0,0,.09.48l.19.44a1.74,1.74,0,0,1,.16.75v.24a.29.29,0,1,1-.57,0Z"/><path class="cls-6" d="M24.09,37h-.33V36.9h.79V37h-.33v2.29h-.13Z"/><path class="cls-6" d="M25.77,36.9h.13v2.42h-.13Z"/><path class="cls-6" d="M27.12,36.9h.13l.24,1.91.24-1.91h.13l-.3,2.42h-.13Z"/><path class="cls-6" d="M29.15,36.9h.13l.3,2.42h-.13l-.07-.58h-.33l-.07.58h-.14Zm.21,1.72-.15-1.2-.15,1.2Z"/><path class="cls-6" d="M30.78,36.9h.13v2.29h.41v.13h-.54Z"/><polyline class="cls-7" points="3.35 6.61 3.35 2.89 7.07 2.89"/><polyline class="cls-7" points="33.16 37.5 33.16 41.22 29.44 41.22"/></g></g></svg>